<svg width="298" height="152" viewBox="0 0 298 152" fill="none" xmlns="http://www.w3.org/2000/svg">
<g opacity="0.1">
<path d="M24.2403 56.6933C19.9818 38.6874 29.4245 15.2194 51.3187 5.63786C64.0015 0.0370364 77.2861 -1.07387 90.8948 0.916503C101.634 2.49029 111.678 6.00817 120.426 12.5348C131.397 20.7277 138.108 31.6053 139.775 45.3065C140.052 47.7598 139.96 50.3056 139.543 52.7126C138.942 56.5082 138.062 60.3038 137.044 64.0068C136.072 67.6173 133.572 70.0242 130.008 71.3666C122.093 74.329 113.9 75.4862 105.522 75.5788C100.754 75.6714 95.9401 75.3936 90.9411 75.2548C90.293 79.9761 91.1725 84.6512 92.7463 89.3726C96.8196 86.873 101.078 86.6879 105.429 87.8451C109.919 89.0485 113.715 91.4555 116.168 95.5288C118.853 100.019 118.575 104.555 116.122 109.045C115.751 109.693 115.335 110.295 114.826 111.082C115.798 111.637 116.77 112.1 117.649 112.702C119.547 113.951 121.445 115.109 123.204 116.497C126.86 119.367 127.786 123.163 126.49 127.514C126.12 128.717 125.703 129.921 125.24 131.263C129.499 130.291 133.618 130.8 137.645 131.772C141.626 132.744 145.7 133.624 148.477 137.836C146.44 137.188 144.866 136.494 143.246 136.17C140.7 135.614 138.155 135.059 135.609 134.966C132.97 134.827 131.952 136.447 132.832 138.947C133.341 140.335 134.174 141.585 134.914 142.928C129.638 141.493 124.222 141.817 118.853 142.65C113.437 143.483 108.716 145.52 105.799 150.472C99.5969 144.501 91.8668 145.659 85.942 152C86.1271 150.241 86.4974 148.436 86.4974 146.631C86.5437 142.742 85.0162 140.937 81.128 140.15C76.3604 139.178 71.5927 139.132 66.7788 139.641C66.4085 139.687 65.9919 139.687 65.5753 139.595C72.1482 136.077 79.3691 135.151 86.6826 134.827C86.7289 134.688 86.8214 134.503 86.8677 134.364C84.3682 133.022 82.0538 131.263 79.4154 130.337C64.6959 125.246 51.7815 117.516 41.6445 105.527C40.9039 104.648 40.3022 104.74 39.4227 105.064C34.6088 106.962 29.7022 108.397 24.518 108.675C19.1486 108.999 14.0107 107.888 9.28931 105.342C2.39243 101.639 -1.49575 93.3533 0.540912 85.3455C3.68848 73.2181 10.4928 63.5902 21.8333 57.6191C22.6665 57.3414 23.4534 57.0174 24.2403 56.6933ZM31.0446 57.9894C32.6647 54.1938 34.4236 52.7589 38.9598 51.4628C46.7825 49.241 54.744 47.9449 62.8443 47.2969C77.7027 46.0934 92.5611 46.4637 107.281 49.0559C116.862 50.7222 126.629 52.1571 134.22 59.5632C135.887 55.4436 136.72 51.2777 136.349 46.9729C135.192 33.0866 128.295 22.5329 117.14 14.5251C116.723 14.2011 115.89 14.2011 115.335 14.3863C113.854 14.8029 112.419 15.4972 110.891 15.8675C106.818 16.8395 102.698 15.3583 100.939 12.0256C100.106 10.4518 99.9209 8.50771 99.3655 6.33218C81.5909 1.88855 63.9552 2.30514 47.1065 11.8867C47.3842 12.3959 47.5231 12.7199 47.6619 12.9976C49.3746 16.0989 49.1894 18.8762 46.6436 21.3757C45.3475 22.6255 43.7737 23.829 42.1074 24.477C39.469 25.4953 36.6917 26.0971 33.9607 26.6988C32.9424 26.9303 32.2944 27.3006 31.9241 28.2263C30.8594 30.8184 29.5171 33.3643 28.6839 36.049C27.0176 41.4647 25.9992 46.9729 27.4341 52.62C27.9896 54.703 28.9616 56.6008 31.0446 57.9894ZM75.1569 50.1668C74.6477 53.2218 74.4626 55.999 73.6757 58.5449C71.8242 64.3308 69.6949 69.978 67.612 75.6714C65.0199 82.6145 63.8627 89.7429 65.1587 97.1026C67.288 109.508 73.4905 119.552 83.0258 127.514C91.2188 134.364 100.523 138.438 111.493 137.836C114.733 137.651 118.066 137.142 119.778 134.04C121.306 131.356 122.37 128.393 123.389 125.477C124.129 123.348 123.343 121.311 121.63 119.83C120.149 118.58 118.529 117.377 116.862 116.405C113.159 114.275 109.317 112.424 105.614 110.248C92.2834 102.472 84.8774 86.5027 87.9786 71.6443C88.9044 67.2933 90.8485 63.1274 92.2371 58.8689C93.024 56.3693 93.672 53.8235 94.4589 50.8611C87.7009 50.5834 81.4058 50.3519 75.1569 50.1668ZM64.1404 73.5884C62.2426 73.4958 60.1596 73.4033 58.123 73.2644C51.0872 72.8015 44.0515 72.1072 37.4323 69.3762C35.3031 68.4968 33.2664 67.1544 31.4149 65.7195C29.7948 64.4697 28.4525 62.8033 27.1564 61.1833C26.277 60.0724 25.4901 59.8872 24.2403 60.5352C13.3164 65.9972 7.0675 75.1622 4.0125 86.6416C3.27189 89.4651 3.6422 92.4276 4.98454 95.2048C8.36356 93.3533 11.6963 91.9647 15.1679 94.4642C18.5469 96.8712 18.6857 100.574 18.5006 104.648C21.2779 104.277 23.9626 104.138 26.5084 103.583C39.0524 100.852 49.93 94.5105 60.3911 87.4285C60.8077 87.1507 61.178 86.6879 61.2706 86.225C62.2889 82.1054 63.1684 77.9395 64.1404 73.5884ZM95.8939 59.1466C94.783 62.1553 93.5795 65.3492 92.376 68.543C92.6074 68.6819 92.7 68.7282 92.7926 68.7282C103.485 69.3299 114.178 69.4688 124.731 67.2933C126.675 66.8767 128.666 66.2286 130.425 65.3955C132.137 64.5623 132.369 63.2662 131.119 61.8776C129.915 60.5815 128.573 59.1929 127.046 58.4986C123.296 56.8322 119.454 55.351 115.566 54.2401C111.817 53.1755 107.929 52.62 104.133 51.8331C104.087 52.0646 103.994 52.2497 103.948 52.4812C106.077 53.2681 108.206 54.1012 110.336 54.7956C113.668 55.9065 117.047 56.8785 120.426 57.9431C121.491 58.2671 122.139 59.054 121.769 60.1649C121.398 61.3684 120.38 61.6924 119.269 61.2296C112.048 58.4523 104.041 57.7117 97.5602 52.3423C97.5139 54.4715 98.2545 55.999 99.5969 57.0174C101.68 58.6374 103.948 60.0261 106.17 61.461C107.234 62.1553 107.882 62.9422 107.188 64.1457C106.494 65.3955 105.429 65.2103 104.365 64.516C101.541 62.8033 98.7637 60.9981 95.8939 59.1466ZM62.3815 51.0462C54.8365 51.5091 47.3842 52.7589 40.0707 54.8881C38.8672 55.2584 37.6175 55.675 36.5528 56.323C33.6367 58.082 33.683 61.461 36.5991 63.1736C37.5712 63.7291 38.6821 64.2383 39.793 64.516C47.8471 66.4601 55.9475 67.8487 64.2793 68.0339C66.2234 68.0802 67.1954 67.5247 67.7046 65.6269C68.7229 62.2016 69.9264 58.8226 70.991 55.5362C68.1212 57.9894 65.3439 60.3964 62.5666 62.7571C61.5946 63.544 60.5299 63.7291 59.6968 62.5719C58.9099 61.461 59.5116 60.6278 60.4374 59.9335C61.8723 58.8226 63.3535 57.8505 64.6496 56.6008C65.8993 55.3973 66.9177 54.0087 68.0286 52.6663C67.8897 52.5737 67.7971 52.4349 67.6583 52.3423C67.4268 52.4812 67.1491 52.62 66.9177 52.7589C60.6225 56.6471 53.6793 58.406 46.4584 59.4243C45.255 59.6095 44.1441 59.4706 43.9589 57.9894C43.7737 56.4619 44.7921 55.999 46.0881 55.8602C46.7825 55.8139 47.4768 55.675 48.1248 55.5362C53.1239 54.703 57.9378 53.4532 62.3815 51.0462ZM54.8828 97.9821C51.5501 99.6947 48.0322 101.5 44.4218 103.398C52.6147 113.118 62.8443 119.876 74.8792 124.922C74.5089 124.32 74.4163 124.135 74.2774 123.95C69.5561 118.534 65.9919 112.424 63.6312 105.62C63.4924 105.203 63.2146 104.786 62.8906 104.509C60.2522 102.379 57.6138 100.25 54.8828 97.9821ZM111.539 109.369C115.103 105.203 115.474 100.296 112.511 96.4546C108.669 91.4092 100.106 88.9097 94.1812 92.6127C97.4676 99.8336 104.179 106.36 111.539 109.369ZM14.9364 103.814C15.0753 101.315 15.2604 98.8153 12.9461 97.3341C10.6779 95.8991 8.68757 97.3804 6.6972 98.3987C8.45613 101.176 11.6963 103.305 14.9364 103.814ZM35.4882 22.1626C35.6271 22.3015 35.7197 22.4866 35.8585 22.6255C38.9135 21.9775 41.9685 21.2369 44.1903 18.7373C45.6715 17.1172 45.5327 15.6823 43.6812 13.8771C40.9502 16.6544 38.2192 19.4316 35.4882 22.1626ZM103.531 7.48938C103.485 11.9793 107.697 13.8308 112.372 11.4238C109.364 10.0815 106.54 8.83173 103.531 7.48938ZM61.1317 93.6773C60.1134 94.4179 59.2339 95.0197 58.3081 95.6214C59.419 96.8712 60.4837 98.0284 61.502 99.1393C61.5946 99.0467 61.6871 99.0004 61.826 98.9079C61.5946 97.3341 61.4094 95.714 61.1317 93.6773Z" fill="#191919"/>
<path d="M54.8827 97.9824C57.66 100.251 60.2984 102.38 62.8905 104.555C63.2145 104.833 63.4922 105.25 63.6311 105.666C65.9918 112.471 69.5559 118.534 74.2773 123.996C74.4161 124.135 74.5087 124.366 74.879 124.968C62.8442 119.923 52.6609 113.211 44.4216 103.444C48.0321 101.5 51.55 99.6951 54.8827 97.9824Z" fill="white"/>
<path d="M61.1317 93.6777C61.4094 95.7144 61.5945 97.3345 61.826 98.9545C61.7334 99.0471 61.6408 99.0934 61.502 99.186C60.4373 98.0288 59.419 96.8716 58.3081 95.6681C59.2339 95.0201 60.1133 94.4183 61.1317 93.6777Z" fill="white"/>
<path d="M66.5937 34.4297C68.4452 34.6611 71.9168 35.0314 75.3421 35.448C76.5919 35.5869 77.4713 36.2349 77.1936 37.6235C76.9622 38.9659 75.8975 39.151 74.7866 38.9659C69.1858 37.9938 63.5387 37.855 57.8916 38.5493C50.3929 39.5213 43.4035 41.8357 36.9232 45.6776C36.5066 45.9091 36.1363 46.1405 35.766 46.4182C34.7014 47.1126 33.6367 47.2514 32.9424 46.0479C32.2481 44.8444 32.8961 44.0113 34.007 43.3632C43.4035 37.3458 53.8182 34.6148 66.5937 34.4297Z" fill="#191919"/>
<path d="M115.613 44.1963C114.548 43.9648 112.789 43.6871 111.123 43.1779C109.132 42.5299 107.605 41.2801 107.605 38.9657C107.558 36.6514 108.623 34.661 110.752 33.8278C112.465 33.1798 114.455 32.8558 116.307 32.9946C118.621 33.2261 120.982 33.8278 123.111 34.7073C126.259 36.0496 126.675 39.3823 124.129 41.743C121.908 43.7797 119.084 43.9648 115.613 44.1963ZM122.556 38.4103C120.01 37.0679 117.788 36.4662 115.381 36.4662C114.409 36.4662 113.344 36.5125 112.511 36.8828C111.909 37.1605 111.354 37.9937 111.215 38.688C111.123 38.9658 112.048 39.7064 112.604 39.8915C115.15 40.771 117.695 40.7247 120.241 39.8915C120.982 39.7064 121.584 39.0583 122.556 38.4103Z" fill="#191919"/>
<path d="M74.879 10.0819C76.4528 10.0356 77.934 10.4059 78.6746 11.9797C79.4152 13.5997 78.8598 15.1735 77.61 16.1918C75.7122 17.6731 73.6755 18.9691 71.5463 20.1263C70.204 20.8669 68.5839 20.8669 67.3341 19.6634C66.0381 18.4137 66.0843 16.8399 66.5009 15.3124C67.3804 12.0722 70.6668 10.0819 74.879 10.0819ZM74.9716 14.1089C74.9253 13.97 74.879 13.8312 74.7865 13.6923C71.4537 13.9237 70.204 14.7106 69.9262 17.2565C71.7777 16.0993 73.3978 15.0809 74.9716 14.1089Z" fill="#191919"/>
<path d="M76.5456 96.4092C76.6844 95.2983 76.8233 93.8634 76.9622 92.4285C77.101 91.1787 77.6102 90.2067 78.9988 90.3918C80.48 90.6233 80.6652 91.7805 80.48 93.0302C79.7857 97.659 80.0171 102.242 81.4984 106.731C83.4887 112.749 87.1455 117.517 92.4686 120.988C92.7463 121.173 93.0703 121.358 93.348 121.544C94.2738 122.192 94.7367 123.025 94.0887 124.043C93.3943 125.154 92.4223 125.154 91.4039 124.506C87.5621 122.145 84.3219 119.137 81.8224 115.387C78.0268 109.786 76.4067 103.491 76.5456 96.4092Z" fill="#191919"/>
<path d="M33.035 87.0127C33.1275 82.7542 36.5528 79.0512 41.5519 77.8477C41.7371 77.8014 41.8759 77.8014 42.0611 77.7552C43.82 77.3386 45.5327 77.0608 46.7362 78.8198C47.7082 80.1621 47.5693 82.4302 46.1807 84.1429C43.9126 86.9664 41.1353 89.2345 37.7563 90.5306C34.9791 91.5952 32.9887 90.0214 33.035 87.0127ZM36.6917 87.2442C39.5153 85.6241 42.0148 84.004 43.8663 81.273C39.793 81.4119 37.0157 83.7263 36.6917 87.2442Z" fill="#191919"/>
<path d="M26.0918 70.1634C25.8604 73.0795 24.9346 75.8105 22.9443 77.8934C20.6299 80.3004 17.8989 82.3833 15.3068 84.5589C14.4273 85.2995 13.409 85.2069 12.7147 84.2349C12.0203 83.1703 12.4369 82.3371 13.409 81.5965C15.3531 80.1152 17.2972 78.7266 19.0561 77.0603C21.0928 75.1625 22.2962 72.7092 22.574 69.9319C22.6665 68.6822 23.222 67.8953 24.518 67.9878C25.7678 68.0341 26.1844 68.9599 26.0918 70.1634Z" fill="#191919"/>
<path d="M74.9717 14.108C73.398 15.1263 71.7779 16.0984 69.9727 17.2556C70.2504 14.756 71.5002 13.9228 74.8329 13.6914C74.8792 13.8303 74.9254 13.9691 74.9717 14.108Z" fill="white"/>
<path d="M273.239 56.6933C277.498 38.6874 268.055 15.2194 246.16 5.63786C233.477 0.0370364 220.192 -1.07387 206.583 0.916503C195.844 2.49029 185.8 6.00817 177.051 12.5348C166.081 20.7277 159.369 31.6053 157.702 45.3065C157.425 47.7598 157.517 50.3056 157.934 52.7126C158.535 56.5082 159.415 60.3038 160.433 64.0068C161.405 67.6173 163.905 70.0242 167.469 71.3666C175.385 74.329 183.578 75.4862 191.956 75.5788C196.724 75.6714 201.538 75.3936 206.537 75.2548C207.185 79.9761 206.306 84.6512 204.732 89.3726C200.658 86.873 196.4 86.6879 192.049 87.8451C187.559 89.0485 183.763 91.4555 181.31 95.5288C178.625 100.019 178.903 104.555 181.356 109.045C181.726 109.693 182.143 110.295 182.652 111.082C181.68 111.637 180.708 112.1 179.828 112.702C177.93 113.951 176.033 115.109 174.274 116.497C170.617 119.367 169.691 123.163 170.987 127.514C171.357 128.717 171.774 129.921 172.237 131.263C167.978 130.291 163.859 130.8 159.832 131.772C155.851 132.744 151.777 133.624 149 137.836C151.037 137.188 152.611 136.494 154.231 136.17C156.777 135.614 159.322 135.059 161.868 134.966C164.507 134.827 165.525 136.447 164.646 138.947C164.136 140.335 163.303 141.585 162.563 142.928C167.84 141.493 173.255 141.817 178.625 142.65C184.041 143.483 188.762 145.52 191.678 150.472C197.881 144.501 205.611 145.659 211.536 152C211.351 150.241 210.981 148.436 210.981 146.631C210.934 142.742 212.462 140.937 216.35 140.15C221.118 139.178 225.886 139.132 230.7 139.641C231.07 139.687 231.487 139.687 231.903 139.595C225.33 136.077 218.109 135.151 210.796 134.827C210.749 134.688 210.657 134.503 210.61 134.364C213.11 133.022 215.424 131.263 218.063 130.337C232.783 125.246 245.697 117.516 255.835 105.527C256.575 104.648 257.177 104.74 258.056 105.064C262.87 106.962 267.777 108.397 272.961 108.675C278.331 108.999 283.469 107.888 288.19 105.342C295.088 101.639 298.976 93.3533 296.939 85.3455C293.791 73.2181 286.987 63.5902 275.646 57.6191C274.813 57.3414 274.026 57.0174 273.239 56.6933ZM266.435 57.9894C264.815 54.1938 263.056 52.7589 258.519 51.4628C250.697 49.241 242.735 47.9449 234.634 47.2969C219.776 46.0934 204.917 46.4637 190.197 49.0559C180.615 50.7222 170.848 52.1571 163.257 59.5632C161.591 55.4436 160.757 51.2777 161.128 46.9729C162.285 33.0866 169.182 22.5329 180.338 14.5251C180.754 14.2011 181.587 14.2011 182.143 14.3863C183.624 14.8029 185.059 15.4972 186.587 15.8675C190.66 16.8395 194.78 15.3583 196.539 12.0256C197.372 10.4518 197.557 8.50771 198.112 6.33218C215.887 1.88855 233.523 2.30514 250.373 11.8867C250.095 12.3959 249.956 12.7199 249.817 12.9976C248.104 16.0989 248.29 18.8762 250.835 21.3757C252.131 22.6255 253.705 23.829 255.372 24.477C258.01 25.4953 260.787 26.0971 263.519 26.6988C264.537 26.9303 265.185 27.3006 265.555 28.2263C266.62 30.8184 267.962 33.3643 268.795 36.049C270.462 41.4647 271.48 46.9729 270.045 52.62C269.49 54.703 268.518 56.6008 266.435 57.9894ZM222.321 50.1668C222.831 53.2218 223.016 55.999 223.803 58.5449C225.654 64.3308 227.784 69.978 229.867 75.6714C232.459 82.6145 233.616 89.7429 232.32 97.1026C230.191 109.508 223.988 119.552 214.452 127.514C206.259 134.364 196.955 138.438 185.985 137.836C182.745 137.651 179.412 137.142 177.699 134.04C176.172 131.356 175.107 128.393 174.089 125.477C173.348 123.348 174.135 121.311 175.848 119.83C177.329 118.58 178.949 117.377 180.615 116.405C184.318 114.275 188.16 112.424 191.863 110.248C205.195 102.472 212.601 86.5027 209.499 71.6443C208.574 67.2933 206.63 63.1274 205.241 58.8689C204.454 56.3693 203.806 53.8235 203.019 50.8611C209.777 50.5834 216.072 50.3519 222.321 50.1668ZM233.338 73.5884C235.236 73.4958 237.319 73.4033 239.356 73.2644C246.392 72.8015 253.428 72.1072 260.047 69.3762C262.176 68.4968 264.213 67.1544 266.064 65.7195C267.685 64.4697 269.027 62.8033 270.323 61.1833C271.202 60.0724 271.989 59.8872 273.239 60.5352C284.163 65.9972 290.412 75.1622 293.467 86.6416C294.208 89.4651 293.838 92.4276 292.495 95.2048C289.116 93.3533 285.783 91.9647 282.312 94.4642C278.933 96.8712 278.794 100.574 278.979 104.648C276.202 104.277 273.517 104.138 270.971 103.583C258.427 100.852 247.549 94.5105 237.088 87.4285C236.671 87.1507 236.301 86.6879 236.208 86.225C235.19 82.1054 234.31 77.9395 233.338 73.5884ZM201.584 59.1466C202.695 62.1553 203.899 65.3492 205.102 68.543C204.871 68.6819 204.778 68.7282 204.685 68.7282C193.993 69.3299 183.3 69.4688 172.746 67.2933C170.802 66.8767 168.812 66.2286 167.053 65.3955C165.34 64.5623 165.108 63.2662 166.358 61.8776C167.562 60.5815 168.904 59.1929 170.432 58.4986C174.181 56.8322 178.023 55.351 181.911 54.2401C185.661 53.1755 189.549 52.62 193.345 51.8331C193.391 52.0646 193.484 52.2497 193.53 52.4812C191.401 53.2681 189.271 54.1012 187.142 54.7956C183.809 55.9065 180.43 56.8785 177.051 57.9431C175.986 58.2671 175.338 59.054 175.709 60.1649C176.079 61.3684 177.097 61.6924 178.208 61.2296C185.429 58.4523 193.437 57.7117 199.918 52.3423C199.964 54.4715 199.223 55.999 197.881 57.0174C195.798 58.6374 193.53 60.0261 191.308 61.461C190.243 62.1553 189.595 62.9422 190.29 64.1457C190.984 65.3955 192.049 65.2103 193.113 64.516C195.937 62.8033 198.714 60.9981 201.584 59.1466ZM235.097 51.0462C242.642 51.5091 250.095 52.7589 257.408 54.8881C258.612 55.2584 259.862 55.675 260.926 56.323C263.843 58.082 263.796 61.461 260.88 63.1736C259.908 63.7291 258.797 64.2383 257.686 64.516C249.632 66.4601 241.531 67.8487 233.199 68.0339C231.255 68.0802 230.283 67.5247 229.774 65.6269C228.756 62.2016 227.552 58.8226 226.487 55.5362C229.357 57.9894 232.135 60.3964 234.912 62.7571C235.884 63.544 236.949 63.7291 237.782 62.5719C238.569 61.461 237.967 60.6278 237.041 59.9335C235.606 58.8226 234.125 57.8505 232.829 56.6008C231.579 55.3973 230.561 54.0087 229.45 52.6663C229.589 52.5737 229.681 52.4349 229.82 52.3423C230.052 52.4812 230.329 52.62 230.561 52.7589C236.856 56.6471 243.799 58.406 251.021 59.4243C252.224 59.6095 253.335 59.4706 253.52 57.9894C253.705 56.4619 252.687 55.999 251.391 55.8602C250.697 55.8139 250.002 55.675 249.354 55.5362C244.355 54.703 239.541 53.4532 235.097 51.0462ZM242.596 97.9821C245.929 99.6947 249.447 101.5 253.057 103.398C244.864 113.118 234.634 119.876 222.599 124.922C222.97 124.32 223.062 124.135 223.201 123.95C227.922 118.534 231.487 112.424 233.847 105.62C233.986 105.203 234.264 104.786 234.588 104.509C237.226 102.379 239.865 100.25 242.596 97.9821ZM185.938 109.369C182.374 105.203 182.004 100.296 184.966 96.4546C188.808 91.4092 197.372 88.9097 203.297 92.6127C200.01 99.8336 193.298 106.36 185.938 109.369ZM282.543 103.814C282.404 101.315 282.219 98.8153 284.534 97.3341C286.802 95.8991 288.792 97.3804 290.783 98.3987C289.024 101.176 285.783 103.305 282.543 103.814ZM261.991 22.1626C261.852 22.3015 261.76 22.4866 261.621 22.6255C258.566 21.9775 255.511 21.2369 253.289 18.7373C251.807 17.1172 251.946 15.6823 253.798 13.8771C256.529 16.6544 259.26 19.4316 261.991 22.1626ZM193.946 7.48938C193.993 11.9793 189.78 13.8308 185.105 11.4238C188.114 10.0815 190.938 8.83173 193.946 7.48938ZM236.347 93.6773C237.365 94.4179 238.245 95.0197 239.171 95.6214C238.06 96.8712 236.995 98.0284 235.977 99.1393C235.884 99.0467 235.792 99.0004 235.653 98.9079C235.884 97.3341 236.069 95.714 236.347 93.6773Z" fill="#191919"/>
<path d="M242.596 97.9824C239.819 100.251 237.18 102.38 234.588 104.555C234.264 104.833 233.986 105.25 233.848 105.666C231.487 112.471 227.923 118.534 223.201 123.996C223.062 124.135 222.97 124.366 222.599 124.968C234.634 119.923 244.818 113.211 253.057 103.444C249.447 101.5 245.929 99.6951 242.596 97.9824Z" fill="white"/>
<path d="M236.347 93.6777C236.069 95.7144 235.884 97.3345 235.652 98.9545C235.745 99.0471 235.838 99.0934 235.976 99.186C237.041 98.0288 238.059 96.8716 239.17 95.6681C238.245 95.0201 237.365 94.4183 236.347 93.6777Z" fill="white"/>
<path d="M230.885 34.4297C229.033 34.6611 225.562 35.0314 222.136 35.448C220.886 35.5869 220.007 36.2349 220.285 37.6235C220.516 38.9659 221.581 39.151 222.692 38.9659C228.293 37.9938 233.94 37.855 239.587 38.5493C247.086 39.5213 254.076 41.8357 260.556 45.6776C260.973 45.9091 261.343 46.1405 261.713 46.4182C262.778 47.1126 263.842 47.2514 264.537 46.0479C265.231 44.8444 264.583 44.0113 263.472 43.3632C254.076 37.3458 243.661 34.6148 230.885 34.4297Z" fill="#191919"/>
<path d="M181.865 44.1963C182.93 43.9648 184.689 43.6871 186.355 43.1779C188.346 42.5299 189.873 41.2801 189.873 38.9657C189.919 36.6514 188.855 34.661 186.725 33.8278C185.013 33.1798 183.022 32.8558 181.171 32.9946C178.856 33.2261 176.496 33.8278 174.366 34.7073C171.219 36.0496 170.802 39.3823 173.348 41.743C175.57 43.7797 178.393 43.9648 181.865 44.1963ZM174.922 38.4103C177.468 37.0679 179.69 36.4662 182.097 36.4662C183.069 36.4662 184.133 36.5125 184.966 36.8828C185.568 37.1605 186.124 37.9937 186.263 38.688C186.355 38.9658 185.429 39.7064 184.874 39.8915C182.328 40.771 179.782 40.7247 177.236 39.8915C176.496 39.7064 175.894 39.0583 174.922 38.4103Z" fill="#191919"/>
<path d="M222.599 10.0819C221.025 10.0356 219.544 10.4059 218.804 11.9797C218.063 13.5997 218.618 15.1735 219.868 16.1918C221.766 17.6731 223.803 18.9691 225.932 20.1263C227.274 20.8669 228.895 20.8669 230.144 19.6634C231.44 18.4137 231.394 16.8399 230.978 15.3124C230.098 12.0722 226.812 10.0819 222.599 10.0819ZM222.507 14.1089C222.553 13.97 222.599 13.8312 222.692 13.6923C226.025 13.9237 227.274 14.7106 227.552 17.2565C225.701 16.0993 224.081 15.0809 222.507 14.1089Z" fill="#191919"/>
<path d="M220.933 96.4073C220.794 95.2964 220.655 93.8615 220.516 92.4265C220.377 91.1768 219.868 90.2047 218.48 90.3899C216.998 90.6213 216.813 91.7785 216.998 93.0283C217.693 97.6571 217.461 102.24 215.98 106.729C213.99 112.747 210.333 117.515 205.01 120.986C204.732 121.171 204.408 121.356 204.13 121.542C203.204 122.19 202.741 123.023 203.389 124.041C204.084 125.152 205.056 125.152 206.074 124.504C209.916 122.143 213.156 119.135 215.656 115.385C219.452 109.784 221.072 103.489 220.933 96.4073Z" fill="#191919"/>
<path d="M264.444 87.0127C264.352 82.7542 260.926 79.0512 255.927 77.8477C255.742 77.8014 255.603 77.8014 255.418 77.7552C253.659 77.3386 251.946 77.0608 250.743 78.8198C249.771 80.1621 249.91 82.4302 251.298 84.1429C253.566 86.9664 256.344 89.2345 259.723 90.5306C262.5 91.5952 264.491 90.0214 264.444 87.0127ZM260.787 87.2442C257.964 85.6241 255.464 84.004 253.613 81.273C257.686 81.4119 260.463 83.7263 260.787 87.2442Z" fill="#191919"/>
<path d="M271.388 70.1634C271.619 73.0795 272.545 75.8105 274.535 77.8934C276.85 80.3004 279.581 82.3833 282.173 84.5589C283.052 85.2995 284.071 85.2069 284.765 84.2349C285.459 83.1703 285.043 82.3371 284.071 81.5965C282.127 80.1152 280.182 78.7266 278.424 77.0603C276.387 75.1625 275.183 72.7092 274.906 69.9319C274.813 68.6822 274.258 67.8953 272.961 67.9878C271.712 68.0341 271.295 68.9599 271.388 70.1634Z" fill="#191919"/>
<path d="M222.507 14.108C224.08 15.1263 225.701 16.0984 227.506 17.2556C227.228 14.756 225.978 13.9228 222.646 13.6914C222.599 13.8303 222.553 13.9691 222.507 14.108Z" fill="white"/>
</g>
</svg>
