<svg width="94" height="38" viewBox="0 0 94 38" fill="none" xmlns="http://www.w3.org/2000/svg">
<path d="M93 2V1H92H12C5.92487 1 1 5.92487 1 12V36V37H2H92H93V36V2Z" stroke="white" stroke-width="2"/>
<path d="M25.1078 23.9828H18.0172V21.2724H25.1078V23.9828ZM21.1632 14.085H21.9618L17.0734 28H14.0726L20.0984 11.06H23.0266L29.0524 28H26.0516L21.1632 14.085ZM35.1334 28.242C33.9073 28.242 32.8747 27.9556 32.0358 27.3829C31.2049 26.8102 30.5757 26.0479 30.1482 25.096C29.7287 24.1441 29.519 23.1035 29.519 21.9742C29.519 20.8449 29.7287 19.8043 30.1482 18.8524C30.5757 17.9005 31.2049 17.1382 32.0358 16.5655C32.8747 15.9928 33.9073 15.7064 35.1334 15.7064C36.0207 15.7064 36.7709 15.8556 37.384 16.1541C37.9971 16.4445 38.5375 16.8196 39.0054 17.2794L38.2794 17.9086V9.85H41.2802V28H38.4488L38.3036 25.943L39.1748 26.5722C38.6101 27.0885 38.0253 27.4958 37.4203 27.7943C36.8153 28.0928 36.053 28.242 35.1334 28.242ZM35.569 25.7736C36.2305 25.7736 36.7709 25.6123 37.1904 25.2896C37.6099 24.9669 37.9204 24.5233 38.1221 23.9586C38.3238 23.3859 38.4246 22.7244 38.4246 21.9742C38.4246 21.224 38.3238 20.5666 38.1221 20.0019C37.9204 19.4292 37.6099 18.9815 37.1904 18.6588C36.7709 18.3361 36.2305 18.1748 35.569 18.1748C34.9398 18.1748 34.4034 18.3361 33.9597 18.6588C33.516 18.9815 33.1772 19.4292 32.9433 20.0019C32.7094 20.5666 32.5924 21.224 32.5924 21.9742C32.5924 22.7244 32.7094 23.3859 32.9433 23.9586C33.1772 24.5233 33.516 24.9669 33.9597 25.2896C34.4034 25.6123 34.9398 25.7736 35.569 25.7736ZM49.5636 28.242C48.2487 28.242 47.1275 27.9556 46.1998 27.3829C45.2721 26.8102 44.5623 26.0479 44.0702 25.096C43.5862 24.1441 43.3442 23.1035 43.3442 21.9742C43.3442 20.8368 43.5862 19.7881 44.0702 18.8282C44.5623 17.8683 45.2721 17.1019 46.1998 16.5292C47.1275 15.9484 48.2487 15.658 49.5636 15.658C50.8785 15.658 51.9997 15.9484 52.9274 16.5292C53.8551 17.1019 54.5609 17.8683 55.0449 18.8282C55.537 19.7881 55.783 20.8368 55.783 21.9742C55.783 23.1035 55.537 24.1441 55.0449 25.096C54.5609 26.0479 53.8551 26.8102 52.9274 27.3829C51.9997 27.9556 50.8785 28.242 49.5636 28.242ZM49.5636 25.7736C50.5719 25.7736 51.3463 25.4227 51.8868 24.7209C52.4353 24.011 52.7096 23.0955 52.7096 21.9742C52.7096 20.8368 52.4353 19.9132 51.8868 19.2033C51.3463 18.4854 50.5719 18.1264 49.5636 18.1264C48.5633 18.1264 47.7889 18.4854 47.2404 19.2033C46.6919 19.9132 46.4176 20.8368 46.4176 21.9742C46.4176 23.0955 46.6919 24.011 47.2404 24.7209C47.7889 25.4227 48.5633 25.7736 49.5636 25.7736ZM60.9745 28L56.3281 15.9H59.2805L62.2571 24.2732L65.2337 15.9H68.1861L63.5397 28H60.9745ZM72.16 28.242C71.5146 28.242 70.9258 28.1008 70.3934 27.8185C69.861 27.5281 69.4375 27.1127 69.1229 26.5722C68.8083 26.0317 68.651 25.3783 68.651 24.612C68.651 23.9263 68.8083 23.3415 69.1229 22.8575C69.4455 22.3654 69.865 21.9581 70.3813 21.6354C70.9056 21.3047 71.4703 21.0465 72.0753 20.861C72.6883 20.6674 73.2893 20.5262 73.8782 20.4375C74.4751 20.3488 74.9994 20.2963 75.4512 20.2802C75.4189 19.5865 75.2414 19.0823 74.9188 18.7677C74.5961 18.4531 74.0476 18.2958 73.2732 18.2958C72.7327 18.2958 72.2043 18.3724 71.6881 18.5257C71.1799 18.6709 70.6031 18.9008 69.9578 19.2154L69.6916 16.7712C70.4176 16.4163 71.1436 16.1501 71.8696 15.9726C72.6036 15.7951 73.3458 15.7064 74.096 15.7064C74.9994 15.7064 75.7779 15.8677 76.4313 16.1904C77.0847 16.5131 77.5888 17.0334 77.9438 17.7513C78.2987 18.4612 78.4762 19.4009 78.4762 20.5706V23.8376C78.4762 24.4426 78.5044 24.8822 78.5609 25.1565C78.6173 25.4227 78.7222 25.5921 78.8755 25.6647C79.0287 25.7373 79.2506 25.7736 79.541 25.7736H79.9282L79.662 28.242H78.573C78.1212 28.242 77.7179 28.1815 77.363 28.0605C77.0161 27.9476 76.7176 27.7862 76.4676 27.5765C76.2175 27.3668 76.0158 27.1207 75.8626 26.8384C75.4673 27.2821 74.9309 27.6289 74.2533 27.879C73.5837 28.121 72.886 28.242 72.16 28.242ZM73.4184 25.943C73.6846 25.943 74.0153 25.8744 74.4106 25.7373C74.8058 25.5921 75.1608 25.3703 75.4754 25.0718V22.313C74.9107 22.3372 74.346 22.43 73.7814 22.5913C73.2167 22.7526 72.7448 22.9906 72.3657 23.3052C71.9865 23.6198 71.797 24.0151 71.797 24.491C71.797 24.9831 71.926 25.3501 72.1842 25.5921C72.4423 25.826 72.8537 25.943 73.4184 25.943Z" fill="white"/>
</svg>
