<svg width="142" height="156" viewBox="0 0 142 156" fill="none" xmlns="http://www.w3.org/2000/svg">
<path d="M42.8999 38.6008H44.8999V40.6008V72.3008L54.2 63.0008V29.3008H21.7V95.6008L31 86.2008V40.6008V38.6008H33H42.8999Z" fill="#fff"/>
<path d="M79.5 75.2004H81.6001V77.3004V87.1004V89.2004H79.5H38.6001L29.3 98.5004H90.9V65.9004H61.9L52.6001 75.2004H79.5Z" fill="#fff"/>
<path d="M110.9 36.9992V39.0992H108.8H88.6999L79.3999 48.3992H120.2V7.69922L110.9 16.9992V36.9992Z" fill="#fff"/>
<path d="M107.9 9.3L117.2 0H71.8V45.5L81.1001 36.2V11.4V9.3H83.1001H107.9Z" fill="#fff"/>
<path d="M0 149.3H1.7V154.8H2.7V149.3H4.4V148.5H0V149.3Z" fill="#fff"/>
<path d="M13.2 153.4H15.5999L16.0999 154.8H17.0999L14.7999 148.5H14L11.7 154.8H12.7L13.2 153.4ZM14.3999 149.8L15.2999 152.6H13.5L14.3999 149.8Z" fill="#fff"/>
<path d="M26.5999 149.8C26.6999 149.7 26.7999 149.6 26.9999 149.5C27.1999 149.4 27.3999 149.4 27.5999 149.4C27.8999 149.4 28.1999 149.5 28.3999 149.7C28.5999 149.9 28.6999 150.1 28.7999 150.3H29.7999C29.6999 149.8 29.4999 149.3 29.0999 149C28.6999 148.6 28.1999 148.5 27.5999 148.5C27.0999 148.5 26.6999 148.6 26.3999 148.9C26.0999 149.1 25.7999 149.4 25.6999 149.7C25.5999 149.9 25.4999 150.1 25.4999 150.3C25.4999 150.5 25.3999 151 25.3999 151.8C25.3999 152.5 25.3999 153 25.4999 153.3C25.4999 153.4 25.5999 153.5 25.5999 153.6C25.5999 153.7 25.6999 153.8 25.6999 153.9C25.8999 154.2 26.0999 154.4 26.3999 154.7C26.6999 154.9 27.0999 155.1 27.5999 155.1C28.1999 155.1 28.7999 154.9 29.1999 154.4C29.5999 154 29.7999 153.4 29.7999 152.8V151.5H27.5999V152.4H28.8999V152.7C28.8999 153.1 28.7999 153.4 28.4999 153.7C28.2999 154 27.9999 154.1 27.5999 154.1C27.3999 154.1 27.1999 154.1 26.9999 154C26.7999 153.9 26.6999 153.8 26.5999 153.7C26.4999 153.6 26.3999 153.4 26.3999 153.2C26.3999 153 26.2999 152.6 26.2999 151.9C26.2999 151.3 26.2999 150.9 26.3999 150.6C26.3999 150.2 26.4999 150 26.5999 149.8Z" fill="#fff"/>
<path d="M41.2 148.5V154.8H45.2V153.9H42.1V148.5H41.2Z" fill="#fff"/>
<path d="M55.1001 148.5H54.1001V154.8H55.1001V148.5Z" fill="#fff"/>
<path d="M68 153L65.2001 148.5H64.3V154.8H65.3V150.3L68.1001 154.8H69V148.5H68.1001V153H68Z" fill="#fff"/>
<path d="M82.3 149.4V148.5H78.3V154.8H82.3V153.9H79.3V152H81.9V151.2H79.3V149.4H82.3Z" fill="#fff"/>
<path d="M102.2 154.8V148.5H101.2V151.2H98.7001V148.5H97.8V154.8H98.7001V152H101.2V154.8H102.2Z" fill="#fff"/>
<path d="M115.5 149.4V148.5H111.5V154.8H115.5V153.9H112.4V152H115.1V151.2H112.4V149.4H115.5Z" fill="#fff"/>
<path d="M127.5 152C128.3 151.7 128.7 151.1 128.7 150.3C128.7 149.7 128.5 149.3 128.1 149C127.8 148.7 127.3 148.6 126.8 148.6H124.3V154.9H125.3V152.2H126.5L127.8 154.9H128.9L127.5 152ZM125.3 151.2V149.3H126.8C127.1 149.3 127.3 149.4 127.5 149.5C127.7 149.6 127.8 149.9 127.8 150.2C127.8 150.5 127.7 150.7 127.5 150.9C127.3 151.1 127.1 151.2 126.7 151.2H125.3Z" fill="#fff"/>
<path d="M137.7 154.8H141.8V153.9H138.7V152H141.3V151.2H138.7V149.4H141.8V148.5H137.7V154.8Z" fill="#fff"/>
<path d="M9.1001 136.701C8.6001 137.701 7.8001 138.101 6.7001 138.101C5.6001 138.101 4.8001 137.801 4.1001 137.101C3.5001 136.401 3.2001 135.501 3.2001 134.401C3.2001 133.301 3.5001 132.401 4.1001 131.701C4.7001 131.001 5.6001 130.701 6.7001 130.701C7.8001 130.701 8.6001 131.201 9.1001 132.101H12.9001C12.5001 130.701 11.7001 129.701 10.5001 128.901C9.4001 128.101 8.1001 127.801 6.7001 127.801C4.8001 127.801 3.3001 128.401 2.0001 129.701C0.700099 131.001 0.100098 132.501 0.100098 134.501C0.100098 136.401 0.700099 138.001 2.0001 139.301C3.3001 140.601 4.9001 141.201 6.7001 141.201C8.1001 141.201 9.4001 140.801 10.5001 140.101C11.6001 139.301 12.4001 138.301 12.9001 136.901H9.1001V136.701Z" fill="#fff"/>
<path d="M34.8001 134.399C34.8001 132.499 34.2001 130.899 32.9001 129.599C31.6001 128.299 30.0001 127.699 28.2001 127.699C26.3001 127.699 24.8001 128.299 23.5001 129.599C22.2001 130.899 21.6001 132.399 21.6001 134.399C21.6001 136.299 22.2001 137.899 23.5001 139.199C24.8001 140.499 26.4001 141.099 28.2001 141.099C30.1001 141.099 31.6001 140.499 32.9001 139.199C34.2001 137.899 34.8001 136.299 34.8001 134.399ZM30.7001 137.099C30.1001 137.799 29.2001 138.099 28.2001 138.099C27.2001 138.099 26.3001 137.799 25.7001 137.099C25.1001 136.399 24.8001 135.499 24.8001 134.399C24.8001 133.299 25.1001 132.399 25.7001 131.699C26.3001 130.999 27.2001 130.699 28.2001 130.699C29.2001 130.699 30.1001 130.999 30.7001 131.699C31.3001 132.399 31.6001 133.299 31.6001 134.399C31.6001 135.599 31.3001 136.499 30.7001 137.099Z" fill="#fff"/>
<path d="M59 128H55.4L51.6001 136.9L47.9 128H44.3V140.9H47.4V133.6L50.5 140.9H52.8L55.8 133.6V140.9H59V128Z" fill="#fff"/>
<path d="M72.3001 135.9H74.3001C75.2001 135.9 76.0001 135.8 76.6001 135.5C77.3001 135.2 77.8001 134.9 78.1001 134.5C78.7001 133.7 79.0001 132.8 79.0001 132C79.0001 130.9 78.6001 130 77.7001 129.2C76.9001 128.4 75.7001 128 74.2001 128H69.1001V141H72.3001V135.9ZM72.3001 130.4H74.3001C74.8001 130.4 75.1001 130.5 75.4001 130.8C75.7001 131.1 75.8001 131.5 75.8001 131.9C75.8001 132.4 75.7001 132.7 75.4001 133C75.1001 133.3 74.7001 133.4 74.3001 133.4H72.3001V130.4Z" fill="#fff"/>
<path d="M95.5001 127.9H91.6001L87.1001 140.9H90.5001L91.2001 138.7H95.9001L96.6001 140.9H100L95.5001 127.9ZM92.0001 136.4L93.5001 131.8L95.0001 136.4H92.0001Z" fill="#fff"/>
<path d="M120.6 140.9V127.9H117.4V136.1L112.1 127.9H109V140.9H112.1V132.8L117.4 140.9H120.6Z" fill="#fff"/>
<path d="M135.8 133.8L133.3 128H129.7L134.2 136.8V140.9H137.3V136.8L141.8 128H138.2L135.8 133.8Z" fill="#fff"/>
</svg>
